<svg id="Image" height="512" viewBox="0 0 64 64" width="512" xmlns="http://www.w3.org/2000/svg"><g><path d="m48.316 12.003c-.819-.546-3.198-2.003-5.316-2.003-2.185 0-2.848 2.484-2.344 4.81-2.699 1.45-6.193 1.788-10.699-.148-1.812-.779-3.867-1.662-7.957-1.662-9.636 0-15.83 14.056-15.997 21.688-.551.867-2.003 3.6-2.003 8.312 0 11.891 22.27 15.174 30.779 4.627.625-.777-.154-1.893-1.097-1.576-.088.031-8.844 2.949-13.682 2.949-4.662 0-10-4.259-10-6 0-2.015 1.561-3.87 2-4h3c.236 0 .447.131.553.342.511 1.023 1.539 1.658 2.683 1.658l10.832.005c3.752.012 4.757.018 5.449-.672.75-.748.55-2.198-.028-3.117.698-.155 1.324-.352 1.792-.525.005.005.007.012.012.016l4 4c.187.188.442.293.707.293 5.517.015 6.731.116 7.517-.667.433-.432.483-.968.483-1.333 0-.932-.346-1.764-1.001-2.408-1.11-1.091-2.877-1.437-3.999-1.545v-1.401c2.766-1.555 4.973-6.766 5.708-8.679 4.398-.404 10.292-4.378 10.292-7.967 0-4.549-9.748-4.96-11.684-4.997zm.684 10.997c-.423 0-.801.267-.942.666-1.033 2.912-3.402 7.762-5.359 8.38-.416.132-.699.518-.699.954v3c0 .268.108.524.298.712.191.188.492.309.717.288.725-.013 2.708.156 3.583 1.02.253.25.381.535.399.891-.675.129-2.836.099-5.583.09l-3.593-3.593-1.927-3.855c-.591-1.182-2.381-.29-1.789.895l1.229 2.458c-.973.336-2.359.678-3.467.506-.69-.212-1.372-.318-1.903-.367-.284-3.882-2.282-7.482-5.465-9.772-1.074-.771-2.242.85-1.168 1.624 2.924 2.101 4.669 5.504 4.669 9.103 0 .512.388.983 1.015 1 1.364-.033 3.907.417 3.983 1.911-.651.125-1.563.105-14.762.089-.381 0-.724-.212-.894-.552-.446-.893-1.343-1.448-2.342-1.448h-3c-1.832 0-4 3.252-4 6 0 3.159 6.437 8 12 8 2.756 0 6.545-.834 9.535-1.632-9.578 5.787-23.535 1.492-23.535-6.368 0-4.951 1.777-7.37 1.791-7.388.135-.175.209-.39.209-.612 0-7.025 5.773-20 14-20 3.678 0 5.373.728 7.167 1.499 5.006 2.151 9.046 1.804 12.213.194.293.475.653.878 1.083 1.151 1.119.712 2.187-.979 1.073-1.688-1.226-.78-1.324-4.156-.536-4.156 1.541 0 3.712 1.309 4.418 1.813.17.122.374.187.582.187 4.721 0 10 1.283 10 3 0 2.226-5.115 6-9 6z"/><circle cx="51" cy="17" r="1.5"/></g></svg>