<svg id="Layer_1" height="512" viewBox="0 0 90 90" width="512" xmlns="http://www.w3.org/2000/svg"><path d="m48.319 17.897c-7.391.167-14.183 3.797-17.86 10.136-.583.989-2.104.584-2.115-.568 0-2.796-1.088-5.577-2.401-6.807-.651-.615-1.26-.849-1.932-.771-.667.083-1.536.525-2.547 1.76-3.677 4.495-7.552 7.068-10.199 9.021-1.432 1.052-3.343 2.077-3.343 3.661 1.76-.068 3.099.296 4.115.744 1.077.475 1.801.932 2.541 1.12 1.276.323 1.552.292 2.192-.161 1.24-.896 2.568.989 1.308 1.855-1.115.785-2.5.9-4.057.509-1.193-.301-2.027-.864-2.896-1.249-.583-.255-1.188-.432-1.979-.541-1.661-.229-1.923.5-1.48 1.765.245.708.86 1.468 1.709 2.135 1.692 1.344 4.337 2.261 6.109 2.261h6.771c2.109 0 3.552-1.407 4.161-4.063.281-1.563 2.64-1.016 2.208.511-.136.593-.573.948-.807 1.479.015.005.025.011.041.016 2.344 1.353 4.651 1.959 7.099 2.041l.693-1.973c.504-1.428 2.645-.672 2.14.755l-2.276 6.448c-.213.964-.855 1.609-1.385 2.047-.527.443-1 .76-1.151.927-.199.219-.204.297-.005.568.192.271.744.656 1.839.656.76 0 1.405-.307 2.036-.88.631-.572 1.197-1.416 1.631-2.333l3.057-6.459c.895-1.895 1.093-3.495.869-4.703-.219-1.203-.823-2.031-1.683-2.536-1.713-1.011-4.765-.745-7.943 2.432-1.072 1.093-2.697-.541-1.604-1.609 1.833-1.828 3.797-2.943 5.656-3.391 1.865-.453 3.62-.229 5.043.609 1.421.844 2.432 2.308 2.76 4.084.292 1.588.063 3.411-.74 5.375h8.464l-.328-1.161c-.871-3.115-.641-5.589.505-7.333 1.145-1.751 3.109-2.579 5.156-2.699 4.099-.235 8.885 2.037 11.177 6 .875 1.344-1.245 2.563-1.964 1.131-1.76-3.047-5.995-5.047-9.088-4.869-1.548.088-2.709.635-3.391 1.676-.683 1.037-.975 2.756-.209 5.485l1.313 4.676c.344 1.215.307 2.292-.063 3.167-.375.881-.975 1.485-1.568 2.115-.203.219-.203.297-.005.568.193.271.751.656 1.844.656.787 0 1.927-.364 2.672-.9.749-.537 1.031-1.027.907-1.579l-1.22-5.563c-.151-.703.387-1.369 1.111-1.369 6.588 0 12.421 2.833 15.968 7.099 3.541 4.271 4.745 10.088 1.979 15.584-1.864 3.697-6.437 5.02-9.583 2.599-1.599-1.224-1.817-3.251-.969-4.547.428-.647 1.125-1.152 1.964-1.261s1.751.209 2.489.871c.349.312.532.172.672-.005.141-.177.369-.511-.541-1.396-1.672-1.625-4.891-1.604-6.625.109-1.255 1.235-1.916 3.588-.24 6.495 2.349 4.068 7.767 4.735 11.631 2.511 3.699-2.131 5.745-6.828 6.24-11.609 1.735-16.724-7.417-34.656-26.391-40.297-2.498-.749-5.024-1.082-7.482-1.025zm-.062-2.26c2.703-.063 5.473.297 8.197 1.109 20.041 5.959 29.828 24.995 27.995 42.704-.547 5.255-2.749 10.692-7.359 13.343-4.839 2.787-11.688 1.917-14.729-3.348-2.089-3.625-1.423-7.24.609-9.245 2.667-2.625 7.151-2.693 9.801-.125 1.448 1.412 1.636 3.308.735 4.437-.896 1.136-2.755 1.396-3.963.292-.496-.459-.819-.328-1.043-.052-.249.308-.353.885.453 1.505 2.005 1.541 4.865.776 6.177-1.823 2.369-4.708 1.369-9.417-1.703-13.12-2.803-3.369-7.475-5.552-12.74-5.964l.844 3.86c.359 1.64-.62 3.068-1.797 3.911-1.183.849-2.625 1.324-3.995 1.324-1.641 0-2.959-.589-3.688-1.595-.724-1.005-.692-2.484.183-3.432l1.141-1.464c.255-.323.223-.776-.027-1.667l-.355-1.255h-10.14l-2.323 4.912c-.527 1.109-1.229 2.187-2.161 3.036-.939.849-2.157 1.464-3.557 1.464-1.641 0-2.953-.589-3.677-1.595-.724-1.005-.693-2.484.177-3.432.489-.531 1.009-.833 1.38-1.14.369-.303.52-.537.604-.787l.875-2.516c-2.531-.188-5.005-.901-7.432-2.297-1.156 1.371-2.609 2.355-4.484 2.355h-6.771c-2.469 0-5.36-1.041-7.516-2.745-1.073-.853-1.98-1.891-2.432-3.14-.401-1.099-.344-2.375.353-3.579-.239-1.343-.041-2.667.693-3.681.807-1.125 1.968-2.032 3.339-3.043 2.729-2.02 6.339-4.411 9.787-8.629 1.249-1.527 2.613-2.407 4.036-2.579 1.421-.167 2.755.423 3.76 1.369 1.505 1.412 1.917 3.928 2.323 6.333 4.268-5.966 11.012-9.524 18.43-9.701z"/><path clip-rule="evenodd" d="m17.626 29.58c-1.125 0-2.036.912-2.036 2.037 0 1.124.911 2.036 2.036 2.036 1.12 0 2.031-.912 2.031-2.036 0-1.125-.911-2.037-2.031-2.037z" fill-rule="evenodd"/></svg>